<?xml version="1.0" standalone="no"?>
<!DOCTYPE svg PUBLIC "-//W3C//DTD SVG 20010904//EN"
 "http://www.w3.org/TR/2001/REC-SVG-20010904/DTD/svg10.dtd">
<svg version="1.0" xmlns="http://www.w3.org/2000/svg"
 width="820.000000pt" height="820.000000pt" viewBox="0 0 820.000000 820.000000"
 preserveAspectRatio="xMidYMid meet">
<metadata>
Created by potrace 1.14, written by Peter Selinger 2001-2017
</metadata>
<g transform="translate(0.000000,820.000000) scale(0.100000,-0.100000)"
fill="#000000" stroke="none">
<path d="M3850 6436 c-5 -5 -10 -27 -10 -48 l0 -38 -47 -1 c-27 -1 -69 -2 -95
-3 l-47 -1 -6 -47 c-7 -45 -9 -48 -38 -49 -47 -2 -130 -6 -147 -8 -10 -1 -16
-14 -17 -43 -2 -22 -4 -42 -6 -44 -2 -2 -83 -8 -177 -13 -10 -1 -16 -13 -17
-42 -1 -23 -3 -43 -5 -45 -2 -2 -43 -5 -91 -7 -48 -2 -90 -7 -94 -11 -4 -3 -8
-23 -10 -43 -1 -20 -4 -38 -6 -40 -2 -1 -45 -4 -95 -5 -74 -2 -92 -6 -93 -18
-1 -21 -10 -74 -12 -77 -2 -1 -44 -3 -94 -5 -101 -3 -103 -5 -97 -69 l3 -34
-97 0 -97 0 -9 -47 c-9 -46 -11 -48 -45 -49 -104 -3 -141 -6 -148 -12 -4 -4
-8 -24 -10 -44 -3 -44 -2 -43 -46 -46 -45 -4 -49 -7 -54 -54 -2 -20 -5 -38 -6
-40 -2 -1 -19 -4 -40 -6 -20 -2 -39 -6 -42 -9 -7 -7 -7 -1589 0 -1597 7 -6 12
-7 58 -9 25 -2 27 -5 27 -42 0 -37 -2 -40 -27 -42 -46 -2 -51 -3 -58 -10 -4
-4 -9 -113 -11 -244 -2 -130 -5 -238 -7 -240 -2 -2 -21 -6 -43 -7 l-39 -4 -3
-204 -2 -204 92 -3 c51 -1 93 -4 95 -5 1 -2 4 -22 5 -45 2 -34 7 -42 23 -43
45 -3 112 -7 143 -8 28 -1 32 -5 33 -28 1 -61 8 -66 104 -70 49 -2 90 -5 91
-6 2 -1 5 -19 7 -40 2 -20 6 -40 10 -43 6 -6 66 -11 153 -13 29 -1 32 -4 37
-42 3 -22 8 -43 11 -46 6 -6 57 -10 142 -12 41 -1 41 -2 47 -42 3 -22 8 -43
10 -46 3 -3 45 -7 93 -9 49 -3 89 -6 91 -7 1 -2 4 -20 6 -40 2 -21 7 -41 11
-44 3 -4 45 -8 93 -10 47 -2 88 -4 89 -6 2 -1 5 -19 7 -40 2 -20 6 -40 10 -43
5 -6 76 -12 158 -13 23 -1 27 -6 32 -42 3 -22 8 -43 11 -46 3 -3 45 -8 93 -10
48 -2 88 -5 90 -6 1 -2 4 -22 5 -45 2 -34 7 -42 23 -43 45 -3 112 -7 143 -8
28 -1 32 -5 33 -28 1 -62 8 -66 104 -70 49 -2 90 -5 92 -7 3 -2 5 -22 6 -45 1
-23 4 -41 7 -42 26 -3 191 -1 195 2 2 3 7 23 11 45 3 21 7 40 8 41 1 1 38 4
82 7 43 2 86 5 94 5 10 1 16 14 17 42 1 23 3 43 5 45 2 2 43 5 92 8 48 2 90 7
93 10 4 4 8 23 10 43 1 20 4 37 6 39 1 1 42 5 90 7 48 3 90 6 92 9 3 2 7 22
11 44 3 21 7 40 8 41 0 1 40 4 88 6 48 3 91 8 95 10 5 3 10 23 11 43 2 21 4
40 6 42 2 1 45 4 95 5 l91 2 6 48 7 47 41 1 c54 1 127 7 141 13 6 2 12 21 13
42 2 21 4 39 5 41 2 1 42 4 91 7 48 2 89 6 91 8 3 2 7 22 11 44 3 21 7 40 8
41 1 1 41 4 89 6 48 2 89 6 92 9 2 2 7 22 11 44 3 21 7 40 8 41 1 1 38 4 82 7
43 2 86 5 94 5 10 1 16 14 17 43 2 22 4 42 5 44 2 1 20 4 41 7 21 3 41 7 43
10 7 7 7 388 0 394 -2 3 -22 7 -43 10 -21 3 -39 6 -40 7 0 0 -4 18 -7 40 -8
51 -9 51 -52 54 -21 2 -39 4 -41 5 -1 2 -3 20 -5 41 -3 45 -17 56 -72 56 -20
0 -24 6 -30 48 l-6 47 -41 2 c-23 1 -43 3 -45 5 -2 2 -5 23 -6 46 -2 23 -5 42
-8 43 -3 0 -23 3 -45 5 -21 3 -41 6 -42 8 -2 2 -5 19 -6 39 -4 45 -7 48 -54
54 -21 3 -39 6 -41 8 -1 1 -4 18 -5 38 -4 45 -9 50 -54 54 -20 1 -38 5 -40 7
-3 3 -8 56 -8 86 0 1 -20 4 -45 7 -25 3 -46 6 -47 7 -1 1 -3 20 -5 43 -3 24
-7 45 -9 47 -3 3 -22 6 -43 8 -20 1 -40 6 -42 10 -3 5 -7 44 -8 88 -1 44 -5
83 -9 86 -3 4 -23 9 -44 11 -20 2 -39 5 -40 7 -2 2 -5 19 -6 39 -5 54 4 51
-154 56 l-43 1 0 90 0 90 28 2 c45 2 50 3 57 10 8 8 9 1287 1 1295 -3 3 -22 8
-43 10 -20 2 -38 5 -40 6 -1 2 -3 20 -5 41 -3 43 -8 48 -57 53 -19 2 -36 5
-37 6 -3 3 -12 57 -13 78 -1 9 -9 16 -18 16 -65 0 -73 3 -73 27 0 51 -15 72
-56 74 -21 2 -39 4 -40 5 -3 3 -12 56 -13 77 -1 12 -20 16 -93 18 -50 1 -93 4
-95 5 -1 2 -4 20 -7 41 -3 21 -7 41 -11 44 -5 6 -34 8 -147 11 -35 1 -36 2
-43 49 l-6 47 -91 3 c-50 1 -93 3 -94 5 -1 1 -5 20 -8 41 -4 22 -9 42 -12 45
-10 10 -283 8 -294 -3z"/>
</g>
</svg>
